<mxfile host="app.diagrams.net" modified="2024-02-05T00:01:01.628Z" agent="Mozilla/5.0 (Macintosh; Intel Mac OS X 10_15_7) AppleWebKit/537.36 (KHTML, like Gecko) Chrome/121.0.0.0 Safari/537.36" etag="XSduzbTDPRoUNKCrGTOu" version="23.1.1" type="github">
  <diagram name="Page-1" id="rWmZPqaUCYWLDMt-VI79">
    <mxGraphModel dx="1200" dy="553" grid="1" gridSize="10" guides="1" tooltips="1" connect="1" arrows="1" fold="1" page="1" pageScale="1" pageWidth="827" pageHeight="1169" math="0" shadow="0">
      <root>
        <mxCell id="0" />
        <mxCell id="1" parent="0" />
        <mxCell id="Qa7kfGR9Ww7JRhrdEGWG-5" style="edgeStyle=orthogonalEdgeStyle;rounded=0;orthogonalLoop=1;jettySize=auto;html=1;exitX=0.5;exitY=0;exitDx=0;exitDy=0;entryX=0.5;entryY=1;entryDx=0;entryDy=0;strokeWidth=2;fillColor=#ffe6cc;strokeColor=#d79b00;" edge="1" parent="1" source="Qa7kfGR9Ww7JRhrdEGWG-1" target="Qa7kfGR9Ww7JRhrdEGWG-2">
          <mxGeometry relative="1" as="geometry" />
        </mxCell>
        <mxCell id="Qa7kfGR9Ww7JRhrdEGWG-11" style="edgeStyle=orthogonalEdgeStyle;rounded=0;orthogonalLoop=1;jettySize=auto;html=1;strokeColor=#FFB570;strokeWidth=2;exitX=0;exitY=0.75;exitDx=0;exitDy=0;" edge="1" parent="1" source="Qa7kfGR9Ww7JRhrdEGWG-1">
          <mxGeometry relative="1" as="geometry">
            <mxPoint x="170" y="570" as="targetPoint" />
            <mxPoint x="248" y="510" as="sourcePoint" />
            <Array as="points">
              <mxPoint x="170" y="510" />
            </Array>
          </mxGeometry>
        </mxCell>
        <mxCell id="Qa7kfGR9Ww7JRhrdEGWG-14" style="edgeStyle=orthogonalEdgeStyle;rounded=0;orthogonalLoop=1;jettySize=auto;html=1;exitX=0.75;exitY=1;exitDx=0;exitDy=0;entryX=0.75;entryY=0;entryDx=0;entryDy=0;strokeWidth=2;strokeColor=#FFB570;" edge="1" parent="1" source="Qa7kfGR9Ww7JRhrdEGWG-1" target="Qa7kfGR9Ww7JRhrdEGWG-8">
          <mxGeometry relative="1" as="geometry">
            <Array as="points">
              <mxPoint x="373" y="520" />
              <mxPoint x="373" y="560" />
            </Array>
          </mxGeometry>
        </mxCell>
        <mxCell id="Qa7kfGR9Ww7JRhrdEGWG-16" style="edgeStyle=orthogonalEdgeStyle;rounded=0;orthogonalLoop=1;jettySize=auto;html=1;exitX=1;exitY=0.25;exitDx=0;exitDy=0;entryX=0.75;entryY=0;entryDx=0;entryDy=0;strokeWidth=2;strokeColor=#FFB570;" edge="1" parent="1" source="Qa7kfGR9Ww7JRhrdEGWG-1" target="Qa7kfGR9Ww7JRhrdEGWG-9">
          <mxGeometry relative="1" as="geometry" />
        </mxCell>
        <mxCell id="Qa7kfGR9Ww7JRhrdEGWG-1" value="&lt;b&gt;&lt;font color=&quot;#663300&quot;&gt;DEV&lt;/font&gt;&lt;/b&gt;" style="rounded=0;whiteSpace=wrap;html=1;fillColor=#ffe6cc;strokeColor=#d79b00;strokeWidth=2;" vertex="1" parent="1">
          <mxGeometry x="280" y="480" width="120" height="40" as="geometry" />
        </mxCell>
        <mxCell id="Qa7kfGR9Ww7JRhrdEGWG-6" style="edgeStyle=orthogonalEdgeStyle;rounded=0;orthogonalLoop=1;jettySize=auto;html=1;exitX=0.5;exitY=0;exitDx=0;exitDy=0;entryX=0.5;entryY=1;entryDx=0;entryDy=0;strokeWidth=2;fillColor=#dae8fc;strokeColor=#6c8ebf;" edge="1" parent="1" source="Qa7kfGR9Ww7JRhrdEGWG-2" target="Qa7kfGR9Ww7JRhrdEGWG-3">
          <mxGeometry relative="1" as="geometry" />
        </mxCell>
        <mxCell id="Qa7kfGR9Ww7JRhrdEGWG-2" value="&lt;b&gt;&lt;font color=&quot;#007fff&quot;&gt;TEST&lt;/font&gt;&lt;/b&gt;" style="rounded=0;whiteSpace=wrap;html=1;fillColor=#dae8fc;strokeColor=#6c8ebf;strokeWidth=2;" vertex="1" parent="1">
          <mxGeometry x="280" y="360" width="120" height="40" as="geometry" />
        </mxCell>
        <mxCell id="Qa7kfGR9Ww7JRhrdEGWG-3" value="&lt;b&gt;&lt;font color=&quot;#006600&quot;&gt;MAIN&lt;/font&gt;&lt;/b&gt;" style="rounded=0;whiteSpace=wrap;html=1;fillColor=#d5e8d4;strokeColor=#82b366;strokeWidth=2;" vertex="1" parent="1">
          <mxGeometry x="280" y="240" width="120" height="40" as="geometry" />
        </mxCell>
        <mxCell id="Qa7kfGR9Ww7JRhrdEGWG-10" style="edgeStyle=orthogonalEdgeStyle;rounded=0;orthogonalLoop=1;jettySize=auto;html=1;exitX=0.5;exitY=0;exitDx=0;exitDy=0;strokeColor=#A680B8;strokeWidth=2;" edge="1" parent="1" source="Qa7kfGR9Ww7JRhrdEGWG-7">
          <mxGeometry relative="1" as="geometry">
            <mxPoint x="197" y="570" as="sourcePoint" />
            <mxPoint x="280" y="490" as="targetPoint" />
            <Array as="points">
              <mxPoint x="140" y="570" />
              <mxPoint x="140" y="490" />
            </Array>
          </mxGeometry>
        </mxCell>
        <mxCell id="Qa7kfGR9Ww7JRhrdEGWG-7" value="&lt;b&gt;&lt;font color=&quot;#007fff&quot;&gt;Feature a&lt;/font&gt;&lt;/b&gt;" style="rounded=1;whiteSpace=wrap;html=1;fillColor=#E6D0DE;strokeColor=#A680B8;strokeWidth=2;" vertex="1" parent="1">
          <mxGeometry x="123" y="570" width="70" height="30" as="geometry" />
        </mxCell>
        <mxCell id="Qa7kfGR9Ww7JRhrdEGWG-8" value="&lt;b&gt;&lt;font color=&quot;#007fff&quot;&gt;Feature b&lt;/font&gt;&lt;/b&gt;" style="rounded=1;whiteSpace=wrap;html=1;fillColor=#E6D0DE;strokeColor=#A680B8;strokeWidth=2;" vertex="1" parent="1">
          <mxGeometry x="320" y="570" width="70" height="30" as="geometry" />
        </mxCell>
        <mxCell id="Qa7kfGR9Ww7JRhrdEGWG-15" style="edgeStyle=orthogonalEdgeStyle;rounded=0;orthogonalLoop=1;jettySize=auto;html=1;exitX=0.25;exitY=0;exitDx=0;exitDy=0;strokeWidth=2;strokeColor=#67AB9F;" edge="1" parent="1" source="Qa7kfGR9Ww7JRhrdEGWG-9">
          <mxGeometry relative="1" as="geometry">
            <mxPoint x="400" y="510" as="targetPoint" />
            <Array as="points">
              <mxPoint x="468" y="510" />
              <mxPoint x="400" y="510" />
            </Array>
          </mxGeometry>
        </mxCell>
        <mxCell id="Qa7kfGR9Ww7JRhrdEGWG-9" value="&lt;b&gt;&lt;font color=&quot;#0000ff&quot;&gt;Bug Fix b&lt;/font&gt;&lt;/b&gt;" style="rounded=1;whiteSpace=wrap;html=1;fillColor=#eeeeee;strokeColor=#67AB9F;strokeWidth=2;" vertex="1" parent="1">
          <mxGeometry x="529" y="570" width="70" height="30" as="geometry" />
        </mxCell>
        <mxCell id="Qa7kfGR9Ww7JRhrdEGWG-13" style="edgeStyle=orthogonalEdgeStyle;rounded=0;orthogonalLoop=1;jettySize=auto;html=1;exitX=0.25;exitY=0;exitDx=0;exitDy=0;entryX=0.45;entryY=1.05;entryDx=0;entryDy=0;entryPerimeter=0;strokeColor=#A680B8;strokeWidth=2;" edge="1" parent="1" source="Qa7kfGR9Ww7JRhrdEGWG-8" target="Qa7kfGR9Ww7JRhrdEGWG-1">
          <mxGeometry relative="1" as="geometry">
            <Array as="points">
              <mxPoint x="334" y="570" />
            </Array>
          </mxGeometry>
        </mxCell>
        <mxCell id="Qa7kfGR9Ww7JRhrdEGWG-17" value="" style="verticalLabelPosition=bottom;shadow=0;dashed=0;align=center;html=1;verticalAlign=top;strokeWidth=2;shape=mxgraph.mockup.markup.curlyBrace;whiteSpace=wrap;strokeColor=#663300;rotation=90;" vertex="1" parent="1">
          <mxGeometry x="561.5" y="530.5" width="119" height="20" as="geometry" />
        </mxCell>
        <mxCell id="Qa7kfGR9Ww7JRhrdEGWG-19" value="&lt;h1&gt;&lt;br&gt;&lt;/h1&gt;&lt;p&gt;&lt;br&gt;&lt;/p&gt;" style="text;html=1;strokeColor=none;fillColor=none;spacing=5;spacingTop=-20;whiteSpace=wrap;overflow=hidden;rounded=0;" vertex="1" parent="1">
          <mxGeometry x="670" y="475.5" width="230" height="130" as="geometry" />
        </mxCell>
        <mxCell id="Qa7kfGR9Ww7JRhrdEGWG-20" value="&lt;font style=&quot;font-size: 14px;&quot;&gt;All development stems from the DEV branch, while the actual coding takes place on dedicated feature or bug-fix branches.&lt;/font&gt;" style="text;html=1;strokeColor=#FFB570;fillColor=none;align=center;verticalAlign=middle;whiteSpace=wrap;rounded=0;dashed=1;strokeWidth=2;" vertex="1" parent="1">
          <mxGeometry x="635" y="505.5" width="295" height="70" as="geometry" />
        </mxCell>
        <mxCell id="Qa7kfGR9Ww7JRhrdEGWG-21" value="&lt;font style=&quot;font-size: 14px;&quot;&gt;Upon successful execution of automated tests, the modifications are&amp;nbsp;merged into the main branch&lt;/font&gt;" style="text;html=1;strokeColor=#3399FF;fillColor=none;align=center;verticalAlign=middle;whiteSpace=wrap;rounded=0;dashed=1;strokeWidth=2;" vertex="1" parent="1">
          <mxGeometry x="440" y="350" width="280" height="70" as="geometry" />
        </mxCell>
        <mxCell id="Qa7kfGR9Ww7JRhrdEGWG-22" value="&lt;font style=&quot;font-size: 14px;&quot;&gt;Upon successful integration of all changes without any merge conflicts, the deployment of the changes is finalized.&lt;/font&gt;" style="text;html=1;strokeColor=#00CC00;fillColor=none;align=center;verticalAlign=middle;whiteSpace=wrap;rounded=0;dashed=1;strokeWidth=2;" vertex="1" parent="1">
          <mxGeometry x="450" y="225" width="280" height="70" as="geometry" />
        </mxCell>
      </root>
    </mxGraphModel>
  </diagram>
</mxfile>
